<svg width="352" height="379" viewBox="0 0 352 379" fill="none" xmlns="http://www.w3.org/2000/svg">
<g clip-path="url(#clip0_140_152)">
<path d="M235.379 163.889L231.662 173.454L208.865 206.799C208.865 206.799 193.254 225.384 201.927 226.477C210.6 227.57 216.299 209.258 216.299 209.258L243.06 180.014L246.034 166.622L235.379 163.889Z" fill="#9F616A"/>
<path d="M246.777 125.078L243.185 126.188C243.185 126.188 227.057 173.445 228.544 179.185C230.03 184.925 236.721 192.031 239.694 191.484C242.668 190.937 246.777 125.078 246.777 125.078Z" fill="#FF7F63"/>
<path d="M296.965 367.939C296.965 367.939 295.388 376.658 300.129 373.168C304.869 369.679 307.341 362.932 307.341 362.932L296.965 367.939Z" fill="#2F2E41"/>
<path d="M240.83 171.268C240.83 171.268 190.529 366.959 208.37 372.699C226.211 378.438 252.476 372.152 252.229 368.326C251.981 364.5 247.521 288.792 247.521 288.792C247.521 288.792 273.539 389.371 305.752 365.866C337.964 342.361 330.778 337.988 327.805 336.348C324.831 334.709 279.981 256.815 280.229 242.329C280.477 227.844 279.733 182.474 274.282 175.641L240.83 171.268Z" fill="#2F2E41"/>
<path d="M351.79 379H46.5066V377.72H352L351.79 379Z" fill="#3F3D56"/>
<path d="M272.78 101.692C270.844 99.7609 269.637 97.0985 269.398 94.2321C269.158 91.3658 269.904 88.5049 271.487 86.2166C271.277 86.4332 271.072 86.6582 270.876 86.8974C269.027 89.1561 268.067 92.132 268.207 95.1712C268.347 98.2104 269.575 101.064 271.621 103.105C273.668 105.146 276.365 106.207 279.12 106.055C281.876 105.903 284.464 104.551 286.316 102.295C286.512 102.056 286.694 101.808 286.869 101.556C284.963 103.524 282.458 104.629 279.848 104.654C277.238 104.679 274.716 103.622 272.78 101.692Z" fill="#2F2E41"/>
<path d="M271.804 104.443C283.642 104.443 293.238 93.8586 293.238 80.8018C293.238 67.7449 283.642 57.1603 271.804 57.1603C259.966 57.1603 250.37 67.7449 250.37 80.8018C250.37 93.8586 259.966 104.443 271.804 104.443Z" fill="#2F2E41"/>
<path d="M214.069 371.879C214.069 371.879 208.369 378.165 214.069 378.165C219.768 378.165 225.219 374.066 225.219 374.066L214.069 371.879Z" fill="#2F2E41"/>
<path d="M258.176 95.5606C258.176 95.5606 261.893 112.506 259.167 115.786C256.441 119.065 250.494 121.525 250.494 121.525L251.485 152.136C251.485 152.136 262.884 147.763 263.379 147.217C263.875 146.67 274.034 128.905 274.034 128.905L283.946 118.519C283.946 118.519 268.831 110.593 273.291 96.9271C277.751 83.2615 258.176 95.5606 258.176 95.5606Z" fill="#9F616A"/>
<path d="M280.063 89.9111C281.202 82.1633 276.432 74.8631 269.408 73.6058C262.383 72.3485 255.765 77.6102 254.625 85.358C253.485 93.1059 258.255 100.406 265.28 101.663C272.304 102.921 278.923 97.659 280.063 89.9111Z" fill="#9F616A"/>
<path d="M274.282 175.641C274.282 175.641 279.981 154.869 282.707 152.136C285.433 149.403 292.123 123.712 292.123 123.712C292.123 123.712 287.91 117.426 284.441 117.426C280.972 117.426 277.751 118.792 273.786 122.892C271.919 124.822 268.514 126.947 265.433 128.654C264.34 129.27 263.146 129.64 261.922 129.742C260.697 129.843 259.467 129.675 258.302 129.246C257.138 128.817 256.062 128.137 255.139 127.244C254.215 126.352 253.462 125.266 252.923 124.049C252.307 122.605 252.105 121.222 252.724 120.159C252.724 120.159 243.556 122.892 243.06 126.718C242.565 130.545 243.06 138.471 242.317 140.11C241.574 141.75 239.343 144.21 240.335 154.596C241.326 164.982 239.3 178.115 239.3 178.115C248.556 187.857 261.38 181.843 274.282 175.641Z" fill="#FF7F63"/>
<path d="M267.22 83.1249C273.241 83.1249 278.123 79.4539 278.123 74.9256C278.123 70.3972 273.241 66.7262 267.22 66.7262C261.198 66.7262 256.317 70.3972 256.317 74.9256C256.317 79.4539 261.198 83.1249 267.22 83.1249Z" fill="#2F2E41"/>
<path d="M285.804 74.3789C291.552 74.3789 296.211 69.2395 296.211 62.8998C296.211 56.56 291.552 51.4207 285.804 51.4207C280.056 51.4207 275.397 56.56 275.397 62.8998C275.397 69.2395 280.056 74.3789 285.804 74.3789Z" fill="#2F2E41"/>
<path d="M293.238 71.0992C290.628 71.0988 288.114 70.0168 286.194 68.0678C284.273 66.1189 283.087 63.4451 282.87 60.5767C282.846 60.8924 282.831 61.2108 282.831 61.5333C282.831 64.5766 283.927 67.4951 285.878 69.6474C287.829 71.7996 290.474 73.0094 293.234 73.0106C295.993 73.0119 298.639 71.8047 300.592 69.6543C302.544 67.5039 303.643 64.5863 303.645 61.543V61.5333C303.645 61.2108 303.63 60.8924 303.606 60.5767C303.389 63.4451 302.203 66.1189 300.282 68.0679C298.362 70.0168 295.848 71.0988 293.238 71.0992Z" fill="#2F2E41"/>
<path d="M268.829 246.661H265.367L258.448 313.222L281.267 312.378L268.829 246.661Z" fill="#FF7F63"/>
<path opacity="0.2" d="M268.829 246.661H265.367L258.448 313.222L281.267 312.378L268.829 246.661Z" fill="black"/>
<path d="M267.675 245.81L263.447 312.8L315.237 317.041L319.465 251.746L267.675 245.81Z" fill="#FF7F63"/>
<path opacity="0.2" d="M285.112 252.597C285.537 252.597 285.883 252.216 285.883 251.746C285.883 251.277 285.537 250.896 285.112 250.896C284.686 250.896 284.341 251.277 284.341 251.746C284.341 252.216 284.686 252.597 285.112 252.597Z" fill="black"/>
<path opacity="0.2" d="M301.256 254.714C301.682 254.714 302.027 254.333 302.027 253.864C302.027 253.394 301.682 253.013 301.256 253.013C300.831 253.013 300.485 253.394 300.485 253.864C300.485 254.333 300.831 254.714 301.256 254.714Z" fill="black"/>
<path d="M301.448 253.87H301.065C301.065 253.688 301.336 235.804 292.025 234.156C290.19 233.833 288.691 234.291 287.568 235.516C283.724 239.722 285.314 251.6 285.33 251.717L284.952 251.781C284.883 251.283 283.32 239.57 287.303 235.217C288.515 233.886 290.132 233.387 292.089 233.733C301.724 235.434 301.453 253.688 301.448 253.87Z" fill="#3F3D56"/>
<path d="M292.866 161.429L291.628 176.734L294.105 222.651C294.105 222.651 299.805 245.882 291.132 245.335C282.459 244.789 285.681 221.011 285.681 221.011L281.716 167.715L292.866 161.429Z" fill="#9F616A"/>
<path d="M285.68 119.885L292.123 123.712C292.123 123.712 300.796 188.729 295.84 195.016C290.884 201.302 280.724 203.762 280.229 201.302C279.733 198.842 277.999 148.856 277.999 148.856L285.68 119.885Z" fill="#FF7F63"/>
<path d="M35.077 0H27.8506C27.5966 0 27.3529 0.111333 27.1732 0.309509C26.9935 0.507685 26.8926 0.776472 26.8926 1.05674V4.55526C26.8926 4.83552 26.9935 5.10431 27.1732 5.30248C27.3529 5.50066 27.5966 5.61199 27.8506 5.61199H29.0482V10.854H33.8795V5.61199H35.077C35.3311 5.61199 35.5747 5.50066 35.7544 5.30248C35.9341 5.10431 36.035 4.83552 36.035 4.55526V1.05674C36.035 0.776478 35.9341 0.507698 35.7544 0.309523C35.5748 0.111347 35.3311 9.33348e-06 35.077 0Z" fill="#6C63FF"/>
<path d="M42.3149 32.0185C37.8893 24.8756 35.6269 16.3711 35.8517 7.72313C35.8557 7.52359 35.797 7.32867 35.6855 7.17146C35.574 7.01425 35.4166 6.90444 35.2401 6.86069V5.349H27.6081V6.83969H27.503C27.4001 6.83983 27.2983 6.86232 27.2034 6.90586C27.1084 6.94941 27.0222 7.01315 26.9495 7.09346C26.8769 7.17377 26.8193 7.26908 26.7801 7.37393C26.7409 7.47878 26.7208 7.59114 26.7209 7.70457C26.7209 7.72554 26.7216 7.7465 26.723 7.76743C27.3243 17.012 25.294 25.3023 20.6321 32.6385C20.3639 33.0601 20.2268 33.5663 20.2416 34.0811L21.0761 62.5536C21.0961 63.1887 21.3378 63.7907 21.7506 64.234C22.1634 64.6772 22.7155 64.9275 23.2916 64.9325H40.5539C41.1366 64.9273 41.6944 64.6713 42.1085 64.2191C42.5226 63.767 42.7602 63.1543 42.7708 62.5117L43.0924 34.8671C43.1019 33.8525 42.8307 32.8587 42.3149 32.0185Z" fill="#3C3C3C" fill-opacity="0.79"/>
<path d="M39.5823 41.4761H24.5568C24.3344 41.4761 24.1146 41.5291 23.9125 41.6316C23.7104 41.7341 23.5308 41.8835 23.386 42.0697C23.2412 42.2559 23.1346 42.4744 23.0735 42.7103C23.0124 42.9462 22.9983 43.1939 23.0321 43.4363L25.3027 59.7151H38.3406L41.0985 43.4912C41.1403 43.2454 41.1324 42.9926 41.0755 42.7506C41.0186 42.5085 40.9141 42.2833 40.7693 42.0909C40.6246 41.8986 40.4432 41.7437 40.238 41.6375C40.0328 41.5312 39.8089 41.4761 39.5823 41.4761V41.4761Z" fill="#6C63FF"/>
<path d="M115.52 85.2932H108.293C108.039 85.2932 107.796 85.4045 107.616 85.6027C107.436 85.8009 107.335 86.0697 107.335 86.3499V89.8485C107.335 90.1287 107.436 90.3975 107.616 90.5957C107.796 90.7939 108.039 90.9052 108.293 90.9052H109.491V96.1472H114.322V90.9052H115.52C115.774 90.9052 116.017 90.7939 116.197 90.5957C116.377 90.3975 116.478 90.1287 116.478 89.8485V86.3499C116.478 86.0697 116.377 85.8009 116.197 85.6027C116.017 85.4045 115.774 85.2932 115.52 85.2932Z" fill="#6C63FF"/>
<path d="M122.758 117.312C118.332 110.169 116.07 101.664 116.294 93.0162C116.298 92.8167 116.24 92.6218 116.128 92.4646C116.017 92.3074 115.859 92.1975 115.683 92.1538V90.6421H108.051V92.1328H107.946C107.843 92.1329 107.741 92.1554 107.646 92.199C107.551 92.2425 107.465 92.3063 107.392 92.3866C107.32 92.4669 107.262 92.5622 107.223 92.667C107.184 92.7719 107.163 92.8842 107.164 92.9977C107.164 93.0186 107.164 93.0396 107.166 93.0605C107.767 102.305 105.737 110.595 101.075 117.932C100.807 118.353 100.669 118.859 100.684 119.374L101.519 147.847C101.539 148.482 101.78 149.084 102.193 149.527C102.606 149.97 103.158 150.221 103.734 150.226H120.997C121.579 150.22 122.137 149.964 122.551 149.512C122.965 149.06 123.203 148.447 123.213 147.805L123.535 120.16C123.545 119.146 123.273 118.152 122.758 117.312Z" fill="#3C3C3C" fill-opacity="0.79"/>
<path d="M120.025 126.769H104.999C104.777 126.769 104.557 126.822 104.355 126.925C104.153 127.027 103.973 127.177 103.829 127.363C103.684 127.549 103.577 127.768 103.516 128.004C103.455 128.239 103.441 128.487 103.475 128.73L105.745 145.008H118.783L121.541 128.784C121.583 128.539 121.575 128.286 121.518 128.044C121.461 127.802 121.357 127.577 121.212 127.384C121.067 127.192 120.886 127.037 120.681 126.931C120.475 126.824 120.252 126.769 120.025 126.769V126.769Z" fill="#6C63FF"/>
<path d="M24.9176 205.873H21.4898C21.3693 205.873 21.2537 205.925 21.1685 206.019C21.0833 206.114 21.0354 206.241 21.0354 206.374V208.033C21.0354 208.166 21.0833 208.294 21.1685 208.388C21.2537 208.482 21.3693 208.535 21.4898 208.535H22.0579V211.021H24.3496V208.535H24.9176C25.0381 208.535 25.1537 208.482 25.239 208.388C25.3242 208.294 25.3721 208.166 25.3721 208.033V206.374C25.3721 206.241 25.3242 206.114 25.239 206.02C25.1537 205.926 25.0381 205.873 24.9176 205.873Z" fill="#E6E6E6"/>
<path d="M28.351 221.06C26.2518 217.672 25.1786 213.638 25.2852 209.536C25.2871 209.441 25.2593 209.349 25.2064 209.274C25.1535 209.2 25.0789 209.148 24.9951 209.127V208.41H21.3749V209.117H21.3251C21.2763 209.117 21.228 209.128 21.1829 209.148C21.1379 209.169 21.097 209.199 21.0625 209.237C21.0281 209.275 21.0008 209.321 20.9822 209.37C20.9636 209.42 20.954 209.473 20.9541 209.527C20.9541 209.537 20.9544 209.547 20.9551 209.557C21.2892 213.743 20.2654 217.924 18.0659 221.355C17.9387 221.555 17.8736 221.795 17.8806 222.039L18.2765 235.545C18.286 235.846 18.4006 236.131 18.5964 236.342C18.7923 236.552 19.0541 236.671 19.3274 236.673H27.5157C27.7921 236.671 28.0567 236.549 28.2531 236.335C28.4495 236.12 28.5623 235.83 28.5673 235.525L28.7198 222.412C28.7243 221.93 28.5957 221.459 28.351 221.06Z" fill="#F9A825"/>
<path d="M27.1726 226.025H19.3596V230.334H27.1726V226.025Z" fill="white"/>
<path d="M40.8741 205.873H37.4464C37.3259 205.873 37.2103 205.925 37.1251 206.019C37.0398 206.114 36.9919 206.241 36.9919 206.374V208.033C36.9919 208.166 37.0398 208.294 37.1251 208.388C37.2103 208.482 37.3259 208.535 37.4464 208.535H38.0144V211.021H40.3061V208.535H40.8742C40.9947 208.535 41.1103 208.482 41.1955 208.388C41.2807 208.294 41.3286 208.166 41.3286 208.033V206.374C41.3286 206.308 41.3169 206.243 41.294 206.182C41.2712 206.121 41.2377 206.066 41.1955 206.019C41.1533 205.973 41.1032 205.936 41.0481 205.911C40.9929 205.886 40.9338 205.873 40.8741 205.873Z" fill="#E6E6E6"/>
<path d="M44.3073 221.06C42.2081 217.672 41.1349 213.638 41.2415 209.536C41.2434 209.441 41.2156 209.349 41.1627 209.274C41.1098 209.2 41.0352 209.148 40.9514 209.127V208.41H37.3312V209.117H37.2814C37.2326 209.117 37.1843 209.128 37.1392 209.148C37.0942 209.169 37.0533 209.199 37.0188 209.237C36.9844 209.275 36.9571 209.321 36.9385 209.37C36.9199 209.42 36.9103 209.473 36.9104 209.527C36.9104 209.537 36.9107 209.547 36.9114 209.557C37.2455 213.743 36.2217 217.924 34.0222 221.355C33.895 221.555 33.8299 221.795 33.8369 222.039L34.2328 235.545C34.2423 235.846 34.3569 236.131 34.5527 236.342C34.7486 236.552 35.0104 236.671 35.2837 236.673H43.472C43.7484 236.671 44.013 236.549 44.2094 236.335C44.4059 236.12 44.5186 235.83 44.5236 235.525L44.6761 222.412C44.6806 221.93 44.552 221.459 44.3073 221.06Z" fill="#F9A825"/>
<path d="M43.1289 226.025H35.3159V230.334H43.1289V226.025Z" fill="white"/>
<path d="M56.8305 205.873H53.4027C53.2822 205.873 53.1666 205.925 53.0813 206.019C52.9961 206.114 52.9482 206.241 52.9482 206.374V208.033C52.9482 208.166 52.9961 208.294 53.0813 208.388C53.1666 208.482 53.2822 208.535 53.4027 208.535H53.9707V211.021H56.2624V208.535H56.8305C56.951 208.535 57.0666 208.482 57.1518 208.388C57.2371 208.294 57.2849 208.166 57.2849 208.033V206.374C57.2849 206.241 57.2371 206.114 57.1518 206.019C57.0666 205.925 56.951 205.873 56.8305 205.873Z" fill="#E6E6E6"/>
<path d="M60.2636 221.06C58.1644 217.672 57.0912 213.638 57.1978 209.536C57.1997 209.441 57.1719 209.349 57.119 209.274C57.0661 209.2 56.9915 209.148 56.9077 209.127V208.41H53.2875V209.117H53.2377C53.1889 209.117 53.1406 209.128 53.0955 209.148C53.0505 209.169 53.0096 209.199 52.9751 209.237C52.9407 209.275 52.9134 209.321 52.8948 209.37C52.8761 209.42 52.8666 209.473 52.8667 209.527C52.8667 209.537 52.867 209.547 52.8677 209.557C53.2018 213.743 52.178 217.924 49.9785 221.355C49.8513 221.555 49.7863 221.795 49.7932 222.039L50.1891 235.545C50.1986 235.846 50.3132 236.131 50.509 236.342C50.7049 236.552 50.9667 236.671 51.24 236.673H59.4283C59.7047 236.671 59.9693 236.549 60.1657 236.335C60.3621 236.12 60.4749 235.83 60.4799 235.525L60.6324 222.412C60.6369 221.93 60.5083 221.459 60.2636 221.06Z" fill="#F9A825"/>
<path d="M59.0852 226.025H51.2722V230.334H59.0852V226.025Z" fill="white"/>
<path d="M102.966 172.876H95.7395C95.4855 172.876 95.2418 172.987 95.0621 173.186C94.8824 173.384 94.7815 173.653 94.7815 173.933V177.431C94.7815 177.712 94.8824 177.98 95.0621 178.179C95.2418 178.377 95.4855 178.488 95.7395 178.488H96.9371V183.73H101.768V178.488H102.966C103.092 178.488 103.216 178.461 103.333 178.408C103.449 178.355 103.554 178.277 103.643 178.179C103.732 178.08 103.803 177.964 103.851 177.836C103.899 177.708 103.924 177.57 103.924 177.431V173.933C103.924 173.653 103.823 173.384 103.643 173.186C103.464 172.987 103.22 172.876 102.966 172.876Z" fill="#6C63FF"/>
<path d="M110.204 204.895C105.778 197.752 103.516 189.247 103.741 180.599C103.745 180.4 103.686 180.205 103.574 180.048C103.463 179.89 103.306 179.781 103.129 179.737V178.225H95.4971V179.716H95.3919C95.2891 179.716 95.1873 179.738 95.0923 179.782C94.9973 179.826 94.9111 179.889 94.8385 179.97C94.7658 180.05 94.7083 180.145 94.669 180.25C94.6298 180.355 94.6097 180.467 94.6098 180.581C94.6098 180.602 94.6106 180.623 94.6119 180.644C95.2132 189.888 93.1829 198.178 88.5211 205.515C88.2528 205.936 88.1157 206.442 88.1305 206.957L88.965 235.43C88.985 236.065 89.2267 236.667 89.6395 237.11C90.0523 237.553 90.6044 237.804 91.1805 237.809H108.443C109.025 237.803 109.583 237.547 109.997 237.095C110.411 236.643 110.649 236.03 110.66 235.388L110.981 207.743C110.991 206.729 110.72 205.735 110.204 204.895Z" fill="#3C3C3C" fill-opacity="0.79"/>
<path d="M107.471 214.352H92.4457C92.2233 214.352 92.0035 214.405 91.8014 214.508C91.5993 214.61 91.4197 214.76 91.2749 214.946C91.1301 215.132 91.0235 215.351 90.9624 215.586C90.9013 215.822 90.8872 216.07 90.921 216.312L93.1916 232.591H106.229L108.987 216.367C109.029 216.122 109.021 215.869 108.964 215.627C108.908 215.385 108.803 215.159 108.658 214.967C108.514 214.775 108.332 214.62 108.127 214.514C107.922 214.407 107.698 214.352 107.471 214.352V214.352Z" fill="#6C63FF"/>
<path d="M106.911 68.598H63.8352C66.8468 50.6387 66.1539 28.9522 63.8352 5.62988H106.911C104.654 28.9523 103.979 50.6387 106.911 68.598Z" fill="#9F616A"/>
<path d="M85.6326 46.8454C91.3652 46.8454 96.0124 41.7196 96.0124 35.3966C96.0124 29.0737 91.3652 23.9479 85.6326 23.9479C79.9001 23.9479 75.2529 29.0737 75.2529 35.3966C75.2529 41.7196 79.9001 46.8454 85.6326 46.8454Z" fill="white"/>
<path d="M67.4681 152.174H24.3923C27.4039 134.215 26.7111 112.528 24.3923 89.2057H67.4681C65.2111 112.528 64.5366 134.215 67.4681 152.174Z" fill="#9F616A"/>
<path d="M46.1898 130.421C51.9223 130.421 56.5695 125.295 56.5695 118.972C56.5695 112.649 51.9223 107.524 46.1898 107.524C40.4572 107.524 35.8101 112.649 35.8101 118.972C35.8101 125.295 40.4572 130.421 46.1898 130.421Z" fill="white"/>
<path d="M131.303 72.605H88.2275C91.2391 54.6456 90.5463 32.9592 88.2275 9.63684H131.303C129.046 32.9592 128.372 54.6457 131.303 72.605Z" fill="#E6E6E6"/>
<path d="M110.025 50.8523C115.758 50.8523 120.405 45.7266 120.405 39.4036C120.405 33.0806 115.758 27.9548 110.025 27.9548C104.292 27.9548 99.6453 33.0806 99.6453 39.4036C99.6453 45.7266 104.292 50.8523 110.025 50.8523Z" fill="white"/>
<path d="M131.303 69.7428H88.2275C91.2391 51.7835 90.5463 30.097 88.2275 6.77466H131.303C129.046 30.097 128.372 51.7835 131.303 69.7428Z" fill="#E6E6E6"/>
<path d="M110.025 47.9902C115.758 47.9902 120.405 42.8644 120.405 36.5414C120.405 30.2184 115.758 25.0927 110.025 25.0927C104.292 25.0927 99.6453 30.2184 99.6453 36.5414C99.6453 42.8644 104.292 47.9902 110.025 47.9902Z" fill="white"/>
<path d="M131.303 72.605H88.2275C91.2391 54.6456 90.5463 32.9592 88.2275 9.63684H131.303C129.046 32.9592 128.372 54.6457 131.303 72.605Z" fill="#9F616A"/>
<path d="M110.025 50.8523C115.758 50.8523 120.405 45.7266 120.405 39.4036C120.405 33.0806 115.758 27.9548 110.025 27.9548C104.292 27.9548 99.6453 33.0806 99.6453 39.4036C99.6453 45.7266 104.292 50.8523 110.025 50.8523Z" fill="white"/>
<path d="M141.164 65.1633H0V82.3364H141.164V65.1633Z" fill="black"/>
<path d="M141.164 150.457H0V167.63H141.164V150.457Z" fill="black"/>
<path d="M141.164 235.75H0V252.923H141.164V235.75Z" fill="black"/>
</g>
<defs>
<clipPath id="clip0_140_152">
<rect width="352" height="379" fill="white"/>
</clipPath>
</defs>
</svg>
